<?xml version="1.0" encoding="utf-8"?>
<!-- Generator: Adobe Illustrator 15.0.0, SVG Export Plug-In . SVG Version: 6.00 Build 0)  -->
<!DOCTYPE svg PUBLIC "-//W3C//DTD SVG 1.1//EN" "http://www.w3.org/Graphics/SVG/1.1/DTD/svg11.dtd">
<svg version="1.1" id="Layer_1" xmlns="http://www.w3.org/2000/svg" xmlns:xlink="http://www.w3.org/1999/xlink" x="0px" y="0px"
	 width="7px" height="7px" viewBox="0 0 7 7" enable-background="new 0 0 7 7" xml:space="preserve">
<defs>
	<filter id="Adobe_OpacityMaskFilter" filterUnits="userSpaceOnUse" x="-36" y="0" width="43" height="25.195">
		<feColorMatrix  type="matrix" values="1 0 0 0 0  0 1 0 0 0  0 0 1 0 0  0 0 0 1 0"/>
	</filter>
</defs>
<mask maskUnits="userSpaceOnUse" x="-36" y="0" width="43" height="25.195" id="SVGID_1_">
	<g filter="url(#Adobe_OpacityMaskFilter)">
		<rect fill="#FFFFFF" width="7" height="7"/>
	</g>
</mask>
<g mask="url(#SVGID_1_)">
	<g>
		<path fill="none" stroke="#FF2400" d="M-14.312,24.5l6.856-6.655c0.982-0.958,2.324-1.345,3.804-1.345h4.86
			c3.011,0,5.292-2.83,5.292-5.842v-4.63C6.5,3.016,4.25,0.5,1.239,0.5h-31.181c-3.012,0-5.558,2.516-5.558,5.528v4.63
			c0,3.012,2.577,5.842,5.589,5.842h4.86c1.48,0,2.821,0.388,3.804,1.345L-14.312,24.5z"/>
	</g>
</g>
</svg>
